<svg width="28" height="29" viewBox="0 0 28 29" xmlns="http://www.w3.org/2000/svg"><title>icon-airbnb-alt</title><path d="M25.465 25.34c-.7 1.073-1.956 1.794-3.123 1.794-1.725 0-4.298-.57-7.04-3.18 2.25-2.622 3.826-5.916 3.826-8.097 0-2.806-2.252-5.003-5.127-5.003s-5.127 2.197-5.127 5.003c0 2.18 1.576 5.475 3.826 8.096-2.743 2.61-5.316 3.18-7.04 3.18-1.168 0-2.423-.72-3.124-1.794-.575-.882-1.047-2.376-.04-4.48l8.658-17.315c.637-1.13 1.568-1.68 2.846-1.68 1.28 0 2.21.55 2.847 1.68l8.652 17.3c1.012 2.12.54 3.613-.035 4.494zm-14.68-9.483c0-2.038 1.657-3.138 3.216-3.138 1.56 0 3.216 1.1 3.216 3.137 0 1.487-1.188 4.275-3.215 6.705-2.027-2.43-3.215-5.218-3.215-6.705zm7.75-13.187C17.563.924 15.952 0 14.002 0c-1.95 0-3.56.924-4.535 2.67L.77 20.057c-1.077 2.25-1.022 4.482.153 6.284C1.977 27.957 3.836 29 5.66 29c3.576 0 6.42-1.866 8.34-3.68 1.92 1.814 4.765 3.68 8.342 3.68 1.823 0 3.68-1.044 4.736-2.66 1.175-1.8 1.23-4.032.147-6.298L18.535 2.67z" fill="#00A699" fill-rule="evenodd"/></svg>